#!OML:ASF H:\Terrain\Patient Classification 1\PLAYGROUND\JustinFriday\JustinFriday.ASF
:FULLY-SPECIFIED
:DEGREES
919
root -24.723 21.8851 -5.34249 208.862 70.6787 -157.818
lowerback 20.8114 -2.16177 -1.66105
upperback 5.72565 -2.57144 1.87485
thorax -5.22566 -1.06078 3.57653
lowerneck -13.9021 -4.62909 -2.12321
upperneck -9.4464 -4.93953 10.3639
head -0.303906 -2.08898 3.55115
rclavicle -2.06736e-014 -1.27222e-014
rhumerus -14.6054 -3.33349 -56.406
rradius 112.11
rwrist -28.5653
rhand -2.44308 -9.66567
rfingers 7.12502
rthumb 23.2484 -38.2823
lclavicle -2.06736e-014 -1.27222e-014
lhumerus 43.4208 -13.0912 58.5419
lradius 60.2122
lwrist -9.94129
lhand -30.1146 -18.4221
lfingers 7.12502
lthumb -3.42814 11.5301
rfemur -39.3039 10.1347 20.1401
rtibia 86.8388
rfoot -1.70509 1.80932
rtoes 1.0122
lfemur -33.851 12.3397 -17.7869
ltibia 41.9261
lfoot -21.3069 -7.20208
ltoes 7.18372
920
root -24.7139 21.9664 -5.43583 209.95 70.1134 -156.824
lowerback 20.7365 -3.17686 0.476267
upperback 5.82397 -3.51519 0.962581
thorax -5.21119 -1.52666 1.60828
lowerneck -14.8518 -4.18407 -0.961753
upperneck -8.67047 -4.53574 11.0054
head 0.0682534 -1.85465 3.55957
rclavicle 2.38542e-015 -2.06736e-014
rhumerus -14.4937 -3.10202 -58.9648
rradius 111.423
rwrist -27.4192
rhand -1.90634 -8.70365
rfingers 7.12502
rthumb 23.7632 -37.2543
lclavicle 2.38542e-015 -2.06736e-014
lhumerus 44.3511 -12.6875 56.1319
lradius 59.5105
lwrist -10.038
lhand -29.9196 -18.1646
lfingers 7.12502
lthumb -3.23977 11.7905
rfemur -40.6428 9.30125 20.7849
rtibia 88.9677
rfoot -3.28629 2.18042
rtoes 1.23437
lfemur -33.0697 11.4579 -17.4131
ltibia 40.2891
lfoot -20.6382 -6.14985
ltoes 5.83412
921
root -24.6746 22.0708 -5.54845 214.74 70.547 -152.054
lowerback 20.0306 -3.10641 1.42222
upperback 5.56905 -3.13989 2.70674
thorax -5.07571 -1.35733 2.82172
lowerneck -14.0417 -4.77872 -8.13427
upperneck -7.88275 -4.4373 14.1714
head 0.511464 -1.63723 5.45863
rclavicle -2.78299e-014 4.05521e-014
rhumerus -13.3198 -1.5647 -56.7313
rradius 109.607
rwrist -26.6559
rhand -0.261545 -7.05208
rfingers 7.12502
rthumb 25.3398 -35.3886
lclavicle -2.78299e-014 4.05521e-014
lhumerus 43.8821 -11.3713 58.0521
lradius 58.6444
lwrist -10.0516
lhand -29.8916 -17.7412
lfingers 7.12502
lthumb -3.21281 12.2144
rfemur -41.6958 10.209 22.0623
rtibia 90.7048
rfoot -4.95439 2.28947
rtoes 2.7891
lfemur -31.9465 12.4399 -16.3865
ltibia 38.6838
lfoot -20.3839 -5.79269
ltoes 5.89093
922
root -24.6838 22.1186 -5.49989 213.078 71.7688 -153.628
lowerback 20.8759 -2.82072 -1.71337
upperback 5.48178 -3.35436 3.22021
thorax -5.37323 -1.44417 5.26588
lowerneck -13.9391 -4.22249 -7.83621
upperneck -8.2094 -3.73566 12.8468
head 0.26327 -1.32532 5.04093
rclavicle 4.92986e-014 -4.21423e-014
rhumerus -12.4006 -0.466184 -55.2614
rradius 110.055
rwrist -27.524
rhand 1.00524 -7.58777
rfingers 7.12502
rthumb 26.5529 -35.7466
lclavicle 4.92986e-014 -4.21423e-014
lhumerus 43.4601 -9.99445 57.6683
lradius 58.3426
lwrist -9.96598
lhand -30.0444 -16.2612
lfingers 7.12502
lthumb -3.36033 13.6921
rfemur -43.4307 10.8149 21.4854
rtibia 93.1198
rfoot -6.37124 2.23873
rtoes 3.17312
lfemur -30.9704 14.0935 -17.5487
ltibia 37.0771
lfoot -20.1377 -6.82394
ltoes 7.61393
923
root -24.6715 22.1891 -5.58347 211.7 72.0492 -154.716
lowerback 21.127 -1.87129 -1.46008
upperback 5.75784 -2.09305 2.55462
thorax -5.36804 -0.822435 4.09226
lowerneck -14.1529 -4.84022 -3.47874
upperneck -9.0521 -5.1186 10.1627
head -0.0821743 -2.14133 3.71876
rclavicle -2.98177e-014 1.98785e-014
rhumerus -13.9934 -2.95281 -56.3818
rradius 109.325
rwrist -25.6166
rhand 0.579919 -7.64353
rfingers 7.12502
rthumb 26.1457 -35.8633
lclavicle -2.98177e-014 1.98785e-014
lhumerus 46.7 -13.0477 57.4112
lradius 57.3273
lwrist -10.5649
lhand -30.2869 -15.1859
lfingers 7.12502
lthumb -3.59447 14.7635
rfemur -44.3464 10.08 20.8817
rtibia 95.0164
rfoot -8.02247 3.36731
rtoes 3.26005
lfemur -29.4676 13.3864 -18.1287
ltibia 35.3401
lfoot -18.6238 -5.88475
ltoes 5.29687
924
root -24.6813 22.2561 -5.61658 211.309 71.8849 -155.493
lowerback 21.4501 -2.91248 -2.79892
upperback 5.30829 -3.64139 3.94625
thorax -5.70081 -1.56147 6.80382
lowerneck -13.9556 -4.17269 -7.00814
upperneck -8.63182 -3.80127 10.8932
head 0.0555419 -1.40854 4.29877
rclavicle -5.52621e-014 1.47101e-014
rhumerus -11.533 1.28942 -55.6822
rradius 108.285
rwrist -23.9617
rhand 1.95454 -6.1414
rfingers 7.12502
rthumb 27.4611 -34.1595
lclavicle -5.52621e-014 1.47101e-014
lhumerus 44.4572 -9.33728 57.969
lradius 56.7651
lwrist -10.6375
lhand -29.9562 -16.0857
lfingers 7.12502
lthumb -3.27518 13.8689
rfemur -46.211 9.52707 21.0972
rtibia 96.9838
rfoot -9.17102 3.28126
rtoes 1.40054
lfemur -28.9289 13.1866 -18.39
ltibia 33.5767
lfoot -17.9158 -5.82293
ltoes 4.45389
925
root -24.6629 22.3284 -5.69533 210.951 72.3587 -155.652
lowerback 21.5985 -2.86836 -1.52442
upperback 5.39271 -3.40196 2.80957
thorax -5.87964 -1.45205 4.77275
lowerneck -13.267 -4.32414 -5.89435
upperneck -9.36513 -4.07448 11.6158
head -0.236504 -1.58845 4.33862
rclavicle 6.16232e-014 -1.59028e-014
rhumerus -13.6238 0.935154 -57.1878
rradius 109.772
rwrist -25.1101
rhand -1.39086 -7.51686
rfingers 7.12502
rthumb 24.2575 -36.0023
lclavicle 6.16232e-014 -1.59028e-014
lhumerus 46.195 -10.762 56.6943
lradius 55.7014
lwrist -11.6
lhand -29.3118 -17.3019
lfingers 7.12502
lthumb -2.65282 12.6614
rfemur -47.0582 9.77714 20.3751
rtibia 98.7654
rfoot -10.2378 5.13587
rtoes 10.7583
lfemur -27.4852 12.5165 -18.679
ltibia 31.803
lfoot -17.3392 -4.86102
ltoes 4.64827
926
root -24.6581 22.3865 -5.75502 210.596 72.6182 -155.946
lowerback 21.79 -2.51103 -0.444937
upperback 5.3958 -2.76267 2.0305
thorax -6.13196 -1.14651 3.15736
lowerneck -12.0915 -4.78224 -5.34858
upperneck -10.8527 -4.59423 12.3013
head -0.795154 -1.90783 4.47153
rclavicle 4.96962e-014 -1.59028e-015
rhumerus -15.2821 -0.310302 -57.3999
rradius 110.148
rwrist -25.5566
rhand -2.84418 -7.95024
rfingers 7.12502
rthumb 22.8635 -36.6149
lclavicle 4.96962e-014 -1.59028e-015
lhumerus 48.4472 -12.3065 54.1461
lradius 55.3044
lwrist -10.3547
lhand -28.6699 -17.37
lfingers 7.12502
lthumb -2.03294 12.6
rfemur -48.5419 9.18119 20.5251
rtibia 100.364
rfoot -11.6539 4.53142
rtoes 3.35721
lfemur -26.4672 12.8803 -19.0888
ltibia 30.1286
lfoot -16.8148 -4.80444
ltoes 1.88065
927
root -24.6521 22.4438 -5.82304 211.502 72.4799 -154.917
lowerback 21.8634 -2.28879 0.777199
upperback 5.7634 -2.17304 2.00154
thorax -5.8536 -0.859513 2.26634
lowerneck -13.4936 -5.48653 -6.49816
upperneck -10.2403 -5.3424 13.433
head -0.249395 -2.16795 4.94388
rclavicle -1.51076e-014 1.11319e-014
rhumerus -15.9414 -1.92514 -57.0171
rradius 109.647
rwrist -25.2951
rhand -2.97047 -7.13831
rfingers 7.12502
rthumb 22.7423 -35.8179
lclavicle -1.51076e-014 1.11319e-014
lhumerus 50.9953 -13.4824 52.7864
lradius 54.8568
lwrist -9.34695
lhand -29.4728 -16.0941
lfingers 7.12502
lthumb -2.80834 13.8671
rfemur -49.6609 8.76551 21.0744
rtibia 101.796
rfoot -12.6334 4.52973
rtoes 3.22079
lfemur -25.4584 12.9527 -18.8961
ltibia 28.5695
lfoot -15.7186 -5.37629
ltoes 5.69134
